REM DIRINDEX 1\2,1\3,1\4,1\6,1\5\7,1\5\8
REM DIRNAME folder01,folder02,folder03,folder04,folder05,folder06,folder07,folder08
TITLE ""
FILE "DB4500_5th_4B_27.mp3" MP3
  TRACK 01 AUDIO
    TITLE "0:"
    INDEX 01 00:00:00
  TRACK 02 AUDIO
    TITLE "2:cjc114_2575"
    INDEX 01 00:00:03
  TRACK 03 AUDIO
    TITLE "0:"
    INDEX 01 00:01:21
  TRACK 04 AUDIO
    TITLE "3:cjc114_2576"
    INDEX 01 00:01:50
  TRACK 05 AUDIO
    TITLE "0:"
    INDEX 01 00:02:51
  TRACK 06 AUDIO
    TITLE "4:cjc114_2577"
    INDEX 01 00:03:06
  TRACK 07 AUDIO
    TITLE "0:"
    INDEX 01 00:06:33
  TRACK 08 AUDIO
    TITLE "2:cjc114_2578"
    INDEX 01 00:07:11
  TRACK 09 AUDIO
    TITLE "0:"
    INDEX 01 00:08:19
  TRACK 10 AUDIO
    TITLE "3:cjc114_2579"
    INDEX 01 00:08:46
  TRACK 11 AUDIO
    TITLE "0:"
    INDEX 01 00:09:51
  TRACK 12 AUDIO
    TITLE "4:cjc114_2580"
    INDEX 01 00:10:04
  TRACK 13 AUDIO
    TITLE "0:"
    INDEX 01 00:13:59
  TRACK 14 AUDIO
    TITLE "2:cjc114_2581"
    INDEX 01 00:14:37
  TRACK 15 AUDIO
    TITLE "0:"
    INDEX 01 00:15:52
  TRACK 16 AUDIO
    TITLE "3:cjc114_2582"
    INDEX 01 00:16:04
  TRACK 17 AUDIO
    TITLE "0:"
    INDEX 01 00:17:65
  TRACK 18 AUDIO
    TITLE "4:cjc114_2583"
    INDEX 01 00:18:17
  TRACK 19 AUDIO
    TITLE "0:"
    INDEX 01 00:21:64
  TRACK 20 AUDIO
    TITLE "2:cjc114_2584"
    INDEX 01 00:22:44
  TRACK 21 AUDIO
    TITLE "0:"
    INDEX 01 00:23:59
  TRACK 22 AUDIO
    TITLE "3:cjc114_2585"
    INDEX 01 00:24:12
  TRACK 23 AUDIO
    TITLE "0:"
    INDEX 01 00:25:37
  TRACK 24 AUDIO
    TITLE "4:cjc114_2586"
    INDEX 01 00:25:64
  TRACK 25 AUDIO
    TITLE "0:"
    INDEX 01 00:28:53
  TRACK 26 AUDIO
    TITLE "2:cjc114_2587"
    INDEX 01 00:29:33
  TRACK 27 AUDIO
    TITLE "0:"
    INDEX 01 00:30:50
  TRACK 28 AUDIO
    TITLE "3:cjc114_2588"
    INDEX 01 00:31:02
  TRACK 29 AUDIO
    TITLE "0:"
    INDEX 01 00:32:31
  TRACK 30 AUDIO
    TITLE "4:cjc114_2589"
    INDEX 01 00:32:60
  TRACK 31 AUDIO
    TITLE "0:"
    INDEX 01 00:36:03
  TRACK 32 AUDIO
    TITLE "2:cjc114_2590"
    INDEX 01 00:36:56
  TRACK 33 AUDIO
    TITLE "0:"
    INDEX 01 00:37:57
  TRACK 34 AUDIO
    TITLE "3:cjc114_2591"
    INDEX 01 00:38:08
  TRACK 35 AUDIO
    TITLE "0:"
    INDEX 01 00:39:25
  TRACK 36 AUDIO
    TITLE "4:cjc114_2592"
    INDEX 01 00:39:52
  TRACK 37 AUDIO
    TITLE "0:"
    INDEX 01 00:42:23
  TRACK 38 AUDIO
    TITLE "2:cjc114_2593"
    INDEX 01 00:43:01
  TRACK 39 AUDIO
    TITLE "0:"
    INDEX 01 00:44:07
  TRACK 40 AUDIO
    TITLE "3:cjc114_2594"
    INDEX 01 00:44:34
  TRACK 41 AUDIO
    TITLE "0:"
    INDEX 01 00:45:53
  TRACK 42 AUDIO
    TITLE "4:cjc114_2595"
    INDEX 01 00:46:07
  TRACK 43 AUDIO
    TITLE "0:"
    INDEX 01 00:49:57
  TRACK 44 AUDIO
    TITLE "2:cjc114_2596"
    INDEX 01 00:50:35
  TRACK 45 AUDIO
    TITLE "0:"
    INDEX 01 00:51:32
  TRACK 46 AUDIO
    TITLE "3:cjc114_2597"
    INDEX 01 00:51:60
  TRACK 47 AUDIO
    TITLE "0:"
    INDEX 01 00:52:73
  TRACK 48 AUDIO
    TITLE "4:cjc114_2598"
    INDEX 01 00:53:27
  TRACK 49 AUDIO
    TITLE "0:"
    INDEX 01 00:55:32
  TRACK 50 AUDIO
    TITLE "2:cjc114_2599"
    INDEX 01 00:56:12
  TRACK 51 AUDIO
    TITLE "0:"
    INDEX 01 00:57:11
  TRACK 52 AUDIO
    TITLE "3:cjc114_2600"
    INDEX 01 00:57:41
  TRACK 53 AUDIO
    TITLE "0:"
    INDEX 01 00:58:58
  TRACK 54 AUDIO
    TITLE "4:cjc114_2601"
    INDEX 01 00:59:12
  TRACK 55 AUDIO
    TITLE "0:"
    INDEX 01 01:02:48
  TRACK 56 AUDIO
    TITLE "2:cjc114_2602"
    INDEX 01 01:03:27
  TRACK 57 AUDIO
    TITLE "0:"
    INDEX 01 01:04:45
  TRACK 58 AUDIO
    TITLE "3:cjc114_2603"
    INDEX 01 01:04:72
  TRACK 59 AUDIO
    TITLE "0:"
    INDEX 01 01:06:28
  TRACK 60 AUDIO
    TITLE "4:cjc114_2604"
    INDEX 01 01:06:55
  TRACK 61 AUDIO
    TITLE "0:"
    INDEX 01 01:09:12
  TRACK 62 AUDIO
    TITLE "2:cjc114_2605"
    INDEX 01 01:09:65
  TRACK 63 AUDIO
    TITLE "0:"
    INDEX 01 01:11:19
  TRACK 64 AUDIO
    TITLE "3:cjc114_2606"
    INDEX 01 01:11:51
  TRACK 65 AUDIO
    TITLE "0:"
    INDEX 01 01:13:04
  TRACK 66 AUDIO
    TITLE "4:cjc114_2607"
    INDEX 01 01:13:34
  TRACK 67 AUDIO
    TITLE "0:"
    INDEX 01 01:16:67
